<svg xmlns="http://www.w3.org/2000/svg" viewBox="-30.0 -30.0 868.0 297.1">
  <rect x="-30.0" y="-30.0" width="868.0" height="297.1" fill="#1e1e2e" rx="12"/>
  <text x="404.0" y="-8" text-anchor="middle" fill="#89b4fa" font-size="14px" font-weight="bold" font-family="Inter, SF Pro Text, Segoe UI, system-ui, sans-serif">bootloader_left (Layer 2)</text>
  <rect x="0.0" y="21.0" width="52.0" height="52.0" rx="6" fill="none" stroke="#585b70" stroke-width="0.5" opacity="0.3"/>
  <rect x="56.0" y="21.0" width="52.0" height="52.0" rx="6" fill="none" stroke="#585b70" stroke-width="0.5" opacity="0.3"/>
  <rect x="112.0" y="7.0" width="52.0" height="52.0" rx="6" fill="none" stroke="#585b70" stroke-width="0.5" opacity="0.3"/>
  <rect x="168.0" y="0.0" width="52.0" height="52.0" rx="6" fill="none" stroke="#585b70" stroke-width="0.5" opacity="0.3"/>
  <rect x="224.0" y="7.0" width="52.0" height="52.0" rx="6" fill="none" stroke="#585b70" stroke-width="0.5" opacity="0.3"/>
  <rect x="280.0" y="14.0" width="52.0" height="52.0" rx="6" fill="none" stroke="#585b70" stroke-width="0.5" opacity="0.3"/>
  <rect x="385.0" y="14.0" width="52.0" height="52.0" rx="6" fill="none" stroke="#585b70" stroke-width="0.5" opacity="0.3"/>
  <rect x="476.0" y="14.0" width="52.0" height="52.0" rx="6" fill="none" stroke="#585b70" stroke-width="0.5" opacity="0.3"/>
  <rect x="532.0" y="7.0" width="52.0" height="52.0" rx="6" fill="none" stroke="#585b70" stroke-width="0.5" opacity="0.3"/>
  <rect x="588.0" y="0.0" width="52.0" height="52.0" rx="6" fill="none" stroke="#585b70" stroke-width="0.5" opacity="0.3"/>
  <rect x="644.0" y="7.0" width="52.0" height="52.0" rx="6" fill="none" stroke="#585b70" stroke-width="0.5" opacity="0.3"/>
  <rect x="700.0" y="21.0" width="52.0" height="52.0" rx="6" fill="none" stroke="#585b70" stroke-width="0.5" opacity="0.3"/>
  <rect x="756.0" y="21.0" width="52.0" height="52.0" rx="6" fill="none" stroke="#585b70" stroke-width="0.5" opacity="0.3"/>
  <rect x="0.0" y="77.0" width="52.0" height="52.0" rx="6" fill="none" stroke="#585b70" stroke-width="0.5" opacity="0.3"/>
  <rect x="56.0" y="77.0" width="52.0" height="52.0" rx="6" fill="none" stroke="#585b70" stroke-width="0.5" opacity="0.3"/>
  <rect x="112.0" y="63.0" width="52.0" height="52.0" rx="6" fill="none" stroke="#585b70" stroke-width="0.5" opacity="0.3"/>
  <rect x="168.0" y="56.0" width="52.0" height="52.0" rx="6" fill="none" stroke="#585b70" stroke-width="0.5" opacity="0.3"/>
  <rect x="224.0" y="63.0" width="52.0" height="52.0" rx="6" fill="none" stroke="#585b70" stroke-width="0.5" opacity="0.3"/>
  <rect x="280.0" y="70.0" width="52.0" height="52.0" rx="6" fill="none" stroke="#585b70" stroke-width="0.5" opacity="0.3"/>
  <rect x="336.0" y="70.0" width="52.0" height="52.0" rx="6" fill="none" stroke="#585b70" stroke-width="0.5" opacity="0.3"/>
  <rect x="383.6" y="70.0" width="52.0" height="52.0" rx="6" fill="none" stroke="#585b70" stroke-width="0.5" opacity="0.3"/>
  <rect x="431.2" y="70.0" width="52.0" height="52.0" rx="6" fill="none" stroke="#585b70" stroke-width="0.5" opacity="0.3"/>
  <rect x="476.0" y="70.0" width="52.0" height="52.0" rx="6" fill="none" stroke="#585b70" stroke-width="0.5" opacity="0.3"/>
  <rect x="532.0" y="63.0" width="52.0" height="52.0" rx="6" fill="none" stroke="#585b70" stroke-width="0.5" opacity="0.3"/>
  <rect x="588.0" y="56.0" width="52.0" height="52.0" rx="6" fill="none" stroke="#585b70" stroke-width="0.5" opacity="0.3"/>
  <rect x="644.0" y="63.0" width="52.0" height="52.0" rx="6" fill="none" stroke="#585b70" stroke-width="0.5" opacity="0.3"/>
  <rect x="700.0" y="77.0" width="52.0" height="52.0" rx="6" fill="none" stroke="#585b70" stroke-width="0.5" opacity="0.3"/>
  <rect x="756.0" y="77.0" width="52.0" height="52.0" rx="6" fill="none" stroke="#585b70" stroke-width="0.5" opacity="0.3"/>
  <rect x="0.0" y="133.0" width="52.0" height="52.0" rx="6" fill="none" stroke="#585b70" stroke-width="0.5" opacity="0.3"/>
  <rect x="56.0" y="133.0" width="52.0" height="52.0" rx="6" fill="none" stroke="#585b70" stroke-width="0.5" opacity="0.3"/>
  <rect x="112.0" y="119.0" width="52.0" height="52.0" rx="6" fill="none" stroke="#585b70" stroke-width="0.5" opacity="0.3"/>
  <rect x="168.0" y="112.0" width="52.0" height="52.0" rx="6" fill="none" stroke="#585b70" stroke-width="0.5" opacity="0.3"/>
  <rect x="224.0" y="119.0" width="52.0" height="52.0" rx="6" fill="none" stroke="#585b70" stroke-width="0.5" opacity="0.3"/>
  <rect x="280.0" y="126.0" width="52.0" height="52.0" rx="6" fill="none" stroke="#585b70" stroke-width="0.5" opacity="0.3"/>
  <rect x="322.0" y="126.0" width="52.0" height="52.0" rx="6" fill="none" stroke="#585b70" stroke-width="0.5" opacity="0.3"/>
  <rect x="385.0" y="126.0" width="52.0" height="52.0" rx="6" fill="none" stroke="#585b70" stroke-width="0.5" opacity="0.3"/>
  <rect x="476.0" y="126.0" width="52.0" height="52.0" rx="6" fill="none" stroke="#585b70" stroke-width="0.5" opacity="0.3"/>
  <rect x="532.0" y="119.0" width="52.0" height="52.0" rx="6" fill="none" stroke="#585b70" stroke-width="0.5" opacity="0.3"/>
  <rect x="588.0" y="112.0" width="52.0" height="52.0" rx="6" fill="none" stroke="#585b70" stroke-width="0.5" opacity="0.3"/>
  <rect x="644.0" y="119.0" width="52.0" height="52.0" rx="6" fill="none" stroke="#585b70" stroke-width="0.5" opacity="0.3"/>
  <rect x="700.0" y="133.0" width="52.0" height="52.0" rx="6" fill="none" stroke="#585b70" stroke-width="0.5" opacity="0.3"/>
  <rect x="756.0" y="133.0" width="52.0" height="52.0" rx="6" fill="none" stroke="#585b70" stroke-width="0.5" opacity="0.3"/>
  <rect x="196.0" y="176.8" width="52.0" height="52.0" rx="6" fill="none" stroke="#585b70" stroke-width="0.5" opacity="0.3"/>
  <rect x="257.6" y="185.1" width="52.0" height="52.0" transform="rotate(15.0 283.6 211.1)" rx="6" fill="none" stroke="#585b70" stroke-width="0.5" opacity="0.3"/>
  <rect x="323.1" y="182.3" width="52.0" height="52.0" transform="rotate(30.0 349.1 208.3)" rx="6" fill="none" stroke="#585b70" stroke-width="0.5" opacity="0.3"/>
  <rect x="432.9" y="182.3" width="52.0" height="52.0" transform="rotate(-30.0 458.9 208.3)" rx="6" fill="none" stroke="#585b70" stroke-width="0.5" opacity="0.3"/>
  <rect x="498.4" y="185.1" width="52.0" height="52.0" transform="rotate(-15.0 524.4 211.1)" rx="6" fill="none" stroke="#585b70" stroke-width="0.5" opacity="0.3"/>
  <rect x="560.0" y="176.8" width="52.0" height="52.0" rx="6" fill="none" stroke="#585b70" stroke-width="0.5" opacity="0.3"/>
  <rect x="56.0" y="21.0" width="52.0" height="52.0" rx="6" fill="#f38ba8" opacity="0.2" stroke="#f38ba8" stroke-width="2"/>
  <rect x="112.0" y="7.0" width="52.0" height="52.0" rx="6" fill="#f38ba8" opacity="0.2" stroke="#f38ba8" stroke-width="2"/>
  <rect x="168.0" y="0.0" width="52.0" height="52.0" rx="6" fill="#f38ba8" opacity="0.2" stroke="#f38ba8" stroke-width="2"/>
  <line x1="82.0" y1="47.0" x2="138.0" y2="33.0" stroke="#f38ba8" stroke-width="2" opacity="0.6"/>
  <line x1="138.0" y1="33.0" x2="194.0" y2="26.0" stroke="#f38ba8" stroke-width="2" opacity="0.6"/>
  <text x="138.0" y="40.3" text-anchor="middle" fill="#f38ba8" font-size="11px" font-weight="bold" font-family="Inter, SF Pro Text, Segoe UI, system-ui, sans-serif">Boot</text>
</svg>
